<svg xmlns="http://www.w3.org/2000/svg" viewBox="0 0 512 512">
  <defs><linearGradient id="g" x1="0" y1="0" x2="1" y2="1"><stop stop-color="#22d3ee"/><stop offset="1" stop-color="#2563eb"/></linearGradient></defs>
  <rect width="512" height="512" rx="112" fill="#020617"/>
  <rect x="70" y="70" width="372" height="372" rx="96" fill="url(#g)"/>
  <path d="M337 190c-20-23-45-35-78-35-61 0-105 43-105 102 0 59 43 101 105 101 34 0 62-12 83-37l-43-39c-10 13-23 20-39 20-26 0-45-19-45-46 0-28 19-46 45-46 16 0 29 6 39 19z" fill="white"/>
</svg>
